<?xml version="1.0" encoding="UTF-8" standalone="no"?>
<!DOCTYPE svg PUBLIC "-//W3C//DTD SVG 1.1//EN" "http://www.w3.org/Graphics/SVG/1.1/DTD/svg11.dtd">
<svg width="100%" height="100%" viewBox="0 0 40 40" version="1.1" xmlns="http://www.w3.org/2000/svg" xmlns:xlink="http://www.w3.org/1999/xlink" xml:space="preserve">
    <rect x="0" y="0" width="40" height="40" style="fill:none;"/>
    <g>
        <g transform="matrix(0.0703125,0,0,0.0703125,2,-1.375)">
            <g>
                <g transform="matrix(1,0,0,1,0,48)">
                    <circle cx="185.209" cy="137.572" r="89.335" style="fill:rgb(202,171,109);"/>
                </g>
                <g transform="matrix(1,0,0,1,0,48)">
                    <path d="M512,463.762L0,463.762L245.154,155.005L279.636,211.43L310.972,205.16L370.5,291.511L422.254,366.587L439.495,349.346L512,463.762Z" style="fill:rgb(177,157,180);fill-rule:nonzero;"/>
                </g>
                <g transform="matrix(1,0,0,1,0,48)">
                    <path d="M179.325,371.404L113.497,410.587L133.256,463.762L0,463.762L245.154,155.005L169.921,319.681L179.325,371.404Z" style="fill:rgb(131,103,129);fill-rule:nonzero;"/>
                </g>
                <g transform="matrix(1,0,0,1,0,48)">
                    <path d="M370.5,291.511L320.376,341.624L226.346,286.767L169.921,319.681L139.839,287.645L245.154,155.005L279.636,211.43L310.972,205.16L370.5,291.511Z" style="fill:rgb(231,232,237);fill-rule:nonzero;"/>
                </g>
                <g transform="matrix(1,0,0,1,0,48)">
                    <path d="M245.154,155.005L169.921,319.681L139.839,287.645L245.154,155.005Z" style="fill:rgb(189,192,201);fill-rule:nonzero;"/>
                    <path d="M279.636,211.43L300.552,245.658L300.552,207.245" style="fill:rgb(189,192,201);fill-rule:nonzero;"/>
                </g>
            </g>
        </g>
    </g>
</svg>
